<?xml version="1.0" encoding="utf-8"?>
<!-- Generator: Adobe Illustrator 24.0.1, SVG Export Plug-In . SVG Version: 6.00 Build 0)  -->
<svg version="1.1" id="Layer_4" xmlns="http://www.w3.org/2000/svg" xmlns:xlink="http://www.w3.org/1999/xlink" x="0px" y="0px"
	 width="1000px" height="465.8px" viewBox="0 0 1000 465.8" style="enable-background:new 0 0 1000 465.8;" xml:space="preserve">
<style type="text/css">
	.st0{display:none;fill:#EB2C35;}
	.st1{display:none;}
	.st2{display:inline;}
	.st3{fill:#128948;}
	.st4{fill:#F3FDFA;}
	.st5{fill:#E5E5E4;}
	.st6{fill:#F19642;}
	.st7{fill:#BA4EE7;}
</style>
<circle class="st0" cx="500" cy="232.9" r="500"/>
<g class="st1">
	<g class="st2">
		<path class="st3" d="M711.7-149.3c-1.5,2.7-5,3.6-7.7,2.1c-43.2-24.7-113.2-54.2-200.6-54.2c-129.2,0-227.6,39.3-319.2,127.4
			C143.7-35,118,11.4,103.5,43.4c-9.6,21.4-15.6,39.3-18.8,50c-4.2,0.5-8.3,1-12.1,1.4c2.8-10,9.2-30.5,20.7-56
			c14.9-32.9,41.3-80.6,83.1-120.9c44-42.4,89.2-73.3,138.1-94.4c56.4-24.4,118.2-36.2,188.9-36.2c39.9,0,80,6.1,119.1,18.1
			c30.4,9.3,59.7,22,87.1,37.7C712.3-155.4,713.2-152,711.7-149.3z"/>
	</g>
	<g class="st2">
		<path class="st3" d="M945.8,152.6c-4.9-1.5-9-2.3-11.8-2.7c-6.8-39.7-31.7-106.2-67.6-163.5c-37.6-60-100.2-107.2-100.9-107.6
			c-2.5-1.9-3-5.4-1.1-7.9s5.4-3,7.9-1.1c2.6,2,64.9,48.8,103.7,110.7C910.2,35.1,939.4,107.8,945.8,152.6z"/>
	</g>
	<g class="st2">
		<path class="st3" d="M935.9,338.5c-2.7,9.6-7.2,24.2-14.1,42.1c-11.5,29.4-32,73.5-64.6,116c-25.9,33.7-69.9,82.2-132.8,121.4
			c-64,39.9-133.2,61.4-205.5,63.9c-5.2,0.2-10.3,0.3-15.3,0.3c-78.7,0-145.3-20.4-188.4-38.1c-2.9-1.2-4.2-4.5-3.1-7.3
			c1.2-2.9,4.5-4.2,7.3-3.1c44.8,18.5,115.7,39.8,199,37c177.1-6,289.6-128.5,329.8-180.9c31.8-41.5,51.8-84.4,63-113
			c6.4-16.4,10.7-30.1,13.4-39.5L935.9,338.5z"/>
	</g>
	<g class="st2">
		<path class="st3" d="M237.3,585.6c-1.1,1.6-2.9,2.5-4.7,2.5c-1.1,0-2.1-0.3-3.1-0.9c-1.3-0.9-32.6-21.8-69.1-65.2
			c-21.4-25.5-40.2-53.4-55.8-83.1c-17.9-34-31.6-70.4-40.9-108.3c4.2-0.5,8-0.9,11.3-1.2c21.3,85.9,62.6,147.9,94,185.3
			c35.5,42.2,66.4,62.9,66.8,63.1C238.3,579.5,239,583,237.3,585.6z"/>
	</g>
</g>
<g class="st1">
	<g class="st2">
		<path class="st4" d="M502.9,644.9c-46.2,0-92.6-8.5-140.8-25.7c-60.3-21.5-115.2-57.6-158.6-104.4c-44.2-47.6-74-103.7-86.4-162.3
			c-0.6-3,1.3-6,4.3-6.7c3-0.6,6,1.3,6.7,4.3c24.1,114.1,117.4,215.6,237.8,258.5c118.5,42.2,226.8,31.5,351.2-34.7
			c63.2-33.7,98.6-79.9,117.1-112.7c20.1-35.7,25.4-63.8,25.4-64.1c0.6-3,3.5-5.1,6.5-4.5c3,0.5,5.1,3.5,4.5,6.5
			c-0.2,1.2-5.5,29.9-26.4,67.2c-12.3,21.8-27.4,42.1-45,60.2c-22,22.6-47.8,41.9-76.9,57.4c-63.9,34-123.4,53.4-181.8,59.2
			C528,644.3,515.5,644.9,502.9,644.9z"/>
	</g>
	<g class="st2">
		<path class="st4" d="M865.2,67.3c-2.1,0-4.2-1.2-5.1-3.3c-19.9-43.2-75.2-128.1-156-172.2c-92-50.3-188.8-67.9-287.5-52.3
			c-57.4,9.1-103.4,30.5-132,46.9c-31,17.8-48.6,33.6-48.8,33.8c-2.3,2.1-5.8,1.9-7.9-0.4c-2.1-2.3-1.9-5.8,0.4-7.9
			c0.7-0.7,18.5-16.7,50.5-35c29.4-16.9,76.9-39,136.1-48.4c101.3-16,200.4,2,294.6,53.5C792.8-72.5,849.8,14.9,870.3,59.4
			c1.3,2.8,0.1,6.2-2.7,7.5C866.8,67.1,866,67.3,865.2,67.3z"/>
	</g>
	<g class="st2">
		<path class="st5" d="M701.6,674.4c-5.5,2.5-34.3,13.7-74.7,22.9c-29.6,6.8-71.4,13.9-117.1,13.9c-13,0-26.4-0.6-39.9-1.9
			c-61.7-6-119.1-20.6-170.7-43.4c-57.5-25.4-109.2-61.6-153.5-107.5c-21.4-22.1-41-48.1-58.3-77.3c-13.8-23.3-26.2-48.6-36.8-75.2
			c-12.2-30.5-19.1-55.5-22.5-69c3.5-1,7.2-1.8,10.9-2.6c3.3,13.2,10.2,38,22,67.7c16.3,40.9,45.6,99.9,92.7,148.6
			c82.4,85.4,189.2,135,317.2,147.5c59.3,5.8,116.1-3.2,153.4-11.8c39.1-9,67.6-20,72.6-22.2c2.8-1.3,6.1,0,7.4,2.8
			C705.6,669.8,704.4,673.1,701.6,674.4z"/>
	</g>
</g>
<g class="st1">
	<g class="st2">
		<path class="st6" d="M981.2,174.8c-4.1-4.3-8.3-7.9-12.6-10.9c-29.9-227.6-223-398-464.1-398c-8.7,0-25.4,0.3-33.8,0.7
			c-3.1,0.2-5.7-2.2-5.9-5.3c-0.2-3.1,2.2-5.7,5.3-5.9c9-0.5,25.9-0.7,34.4-0.7c63.9,0,126,12.1,184.6,35.9
			c57.2,23.2,108.5,56.5,152.6,99C921.1-33.9,969.6,66,981.2,174.8z"/>
		<path class="st6" d="M958.1,340.8l11.3,1.1c-11.6,45.9-30.2,89.9-55.2,130.5c-44.3,72-107.2,130.8-181.9,170.2
			c-0.8,0.4-1.7,0.7-2.6,0.7c-2,0-4-1.1-5-3c-1.4-2.7-0.4-6.1,2.3-7.6C843.6,571.3,926.2,464.7,958.1,340.8z"/>
	</g>
	<g class="st2">
		<path class="st6" d="M392.6-117.7c-30.3,6.1-107.8,36.4-154,91C195.1,24.8,180.7,84,174.5,110c-3.1-2.5-6.5-4.7-10-6.6
			c6.9-28.5,22.4-86.3,65.5-137.3c27.4-32.4,63.4-54.7,88.8-67.7c30.1-15.4,57.3-24.2,71.5-27.1c3-0.6,6,1.4,6.6,4.4
			C397.6-121.3,395.7-118.3,392.6-117.7z"/>
	</g>
	<g class="st2">
		<path class="st6" d="M835.5,90.2l-12.6-3c-15.1-48.4-64.5-124-135.5-166.9c-40.4-24.4-84.6-36.6-114.6-42.6
			c-32.7-6.5-56-7.1-56.2-7.2c-3.1-0.1-5.5-2.7-5.5-5.8c0.1-3.1,2.7-5.6,5.8-5.5c1,0,24.4,0.7,57.9,7.3c31,6.1,76.7,18.7,118.5,44
			c46.8,28.3,80.1,67.3,99.7,95C813.6,34.7,829,65.4,835.5,90.2z"/>
	</g>
	<g class="st2">
		<path class="st6" d="M587.7,613.6c-29.4,3.8-57.1,5.7-82.6,5.7c-46.5,0-85.9-6.2-116.4-18.5c-39.2-15.8-72.2-33.8-100.9-54.9
			c-33.3-24.5-61.1-53.5-85.2-88.6c-26.2-38.2-39.2-79-45.5-106.4c-3.6-15.7-5.4-28.8-6.4-37.9c4.2,2.5,8.8,5.3,12.2,7.4
			c1.1,7.8,2.7,17.5,5.2,28.3c6,26.4,18.5,65.6,43.7,102.3c43.6,63.6,99.5,106.6,181,139.5c45.5,18.3,112.3,22.5,193.4,12.1
			c3.1-0.4,5.9,1.8,6.3,4.9S590.7,613.2,587.7,613.6z"/>
	</g>
	<g class="st2">
		<path class="st6" d="M861.3,335.3c-1.8,8.5-5.3,22.4-11.5,39.5c-9.5,26.5-27.5,66.1-59.4,104.8c-30.3,36.8-65.8,64-108.6,83.2
			c-39.9,17.9-85,28.3-137.9,31.8c-0.1,0-0.3,0-0.4,0c-2.9,0-5.4-2.3-5.6-5.3c-0.2-3.1,2.1-5.8,5.2-6
			c104.9-6.7,182.9-43,238.7-110.8c43.6-53.1,61-108.4,67.2-133.8L861.3,335.3z"/>
	</g>
</g>
<g>
	<path class="st7" d="M340.2,99.7c-7.4,4.5-16,18-25.9,40.3c-9.9,22.3-19.3,46.8-28.2,73.3c-8.9,26.6-19.6,55.8-32.2,87.8
		c-12.6,31.9-24.2,57.1-35,75.5c-11,19.2-24.4,34.7-40.3,46.4c-15.8,11.7-31.7,19.2-47.5,22.5c-15.8,3.2-31.7,3.5-47.7,0.8
		c-16-2.7-30-8-42.2-15.9c-12.2-7.9-22-18.2-29.7-30.9C4,386.7,0.2,372.8,0.2,357.9c0-11,2.8-22,8.3-33.1c5.5-11,12.5-20.2,21-27.6
		c8.5-7.3,17.4-13.1,26.7-17.2c9.3-4.1,18.5-5.1,27.6-3c9,2.1,16.2,7.6,21.6,16.3c-21.5,7.1-33.8,18.7-36.9,34.8
		c-2.8,13.6,1.1,25,11.9,34.3c13.3,11.6,29.8,13,49.6,4.2c2-1.1,4.1-2.3,6.4-3.4c8.8-4.8,18-14.1,27.8-27.8
		c9.8-13.7,19.1-29.3,28-46.6c8.9-17.4,18.2-35.9,27.8-55.5c9.6-19.6,19.2-38.3,28.8-56c9.6-17.7,19.2-33.3,28.8-46.8
		c9.6-13.6,19.9-23.2,30.7-29C319.1,95.8,329.7,95.2,340.2,99.7z M442.4,333.3c17-29.4,24.7-62.5,23.1-99.2
		c-1.6-36.7-11.8-69.1-30.7-97.1c-24.6-36.2-64.9-56.5-120.8-61c-32.8-2.8-63,2.2-90.5,15c-27.6,12.9-45,29-52.4,48.5
		c-2.5,8.2-3.2,16.3-1.9,24.2c1.3,7.9,5.7,15.9,13.1,24c7.5,8.1,17.7,15.3,30.7,21.8c-22,6.2-41,7.2-56.8,3
		c-15.8-4.2-29.1-12.7-39.8-25.4c-12.4-15-20.1-30.5-23.1-46.6c-3-16.1-1.6-31.2,4-45.1c5.7-14,14.1-27.1,25.2-39.2
		c11.2-12.1,24.7-22.5,40.5-30.9c15.8-8.5,32.5-14.6,50-18.2c22.3-5.1,43.7-7.3,64-6.8c20.3,0.6,39.8,2.8,58.5,6.8
		c18.7,4,36,10.2,52.1,18.7c16.1,8.5,30.9,18.2,44.5,29.3c13.6,11,25.5,23.8,35.8,38.4c10.3,14.6,19.1,29.8,26.5,45.8
		c7.3,16,12.7,33.1,16.1,51.5c3.4,18.4,4.9,37,4.7,55.7c-0.3,18.8-2.9,38.3-7.8,58.5c-4.9,20.2-11.9,40.1-21,59.6
		c-15.5,32.5-35.8,57.9-60.8,76.3c-25,18.4-53.5,26.7-85.4,25c-15.3-0.6-29.2-3.5-41.8-8.9c-12.6-5.4-22.9-11.9-30.9-19.7
		c-8.1-7.8-14-16.7-17.8-26.7c-3.8-10-5-20-3.6-29.9c1.4-9.9,5.8-19.7,13.1-29.5c7.3-9.8,17.4-18.2,30.1-25.2
		c-5.4,32.8,2.3,55.2,22.9,67.4c17.8,10.7,39.4,10.7,64.9,0C404.5,381.7,426.2,361.8,442.4,333.3z"/>
	<path class="st7" d="M631,198.1c6.2-2,11.5-0.9,15.9,3.2c4.4,4.1,7.3,9.5,8.7,16.3c1.4,6.8,2.5,13.8,3.4,21
		c0.8,7.2,0.8,12.9,0,17.2c-1.4,11.9-4.4,24-8.9,36.5c2.8,0.8,6.1,0.6,10-0.8c3.8-1.4,7.3-3.7,10.4-7c3.1-3.2,5.1-7,5.9-11.2
		c0.3-2,1.5-7.8,3.8-17.4c0.6-1.4,1-2.5,1.3-3.4c0.3-0.8,0.5-1.7,0.6-2.5c0.1-0.8,0.5-1.5,1.1-2.1c0.6-0.6,0.9-1.1,1.1-1.5
		c0.1-0.4,0.6-0.7,1.5-0.8c0.8-0.1,1.5-0.3,1.9-0.4c0.4-0.1,1.3-0.3,2.8-0.4c1.4-0.1,2.5-0.2,3.2-0.2c0.7,0,2,0.1,4,0.2
		c2,0.1,3.5,0.2,4.7,0.2c-0.8,4.2-1.8,8.8-3,13.8c-1.1,4.9-2.5,10.5-4.2,16.7c-3.4,14.4-11.4,25.4-24,33.1
		c-12.6,7.6-25.1,7.1-37.5-1.7c1.7,3.1,3.7,5.7,5.9,7.6c-7.4,12.4-16.1,22.5-26.3,30.1c-10.2,7.6-21.2,11.4-33.1,11.4
		c-14.1,0-24.7-5.4-31.6-16.3c-6.9-10.9-10.2-24.2-9.8-39.8s3.9-31.6,10.4-47.7c7.9-20.3,20.3-36.6,37.1-48.8
		C603.1,191,618,189.3,631,198.1z M623.4,296c-7.4-9.9-11.7-20.9-13.1-33.1c-0.8-7.1-0.7-14.1,0.4-21.2
		c-6.5,14.7-10.5,30.4-11.9,47.1c-1.4,16.7,1,25.3,7.2,25.9C611.1,314.6,616.9,308.4,623.4,296z"/>
	<path class="st7" d="M670,300.6l14.4-61.5c17.2-75.2,32.2-128.3,44.9-159.4c4.5-11,10.1-19.8,16.7-26.3
		c6.6-6.5,14.7-10.4,24.2-11.7c9.5-1.3,20,1.6,31.6,8.7c-8.2,6.5-15,16.3-20.3,29.2c-3.4,8.5-7.1,18.8-11,30.9
		c-4,12.2-7.3,22.9-10,32.2c-2.7,9.3-6.1,22.6-10.2,39.8c-4.1,17.2-6.9,29.2-8.5,35.8c-1.6,6.6-4.5,19.7-8.9,39.2
		c-4.4,19.5-6.9,30.1-7.4,31.8l-1.3,6.4c-3.7,17.8-2.5,26.4,3.4,25.9c4.8-0.6,9.6-6.4,14.4-17.4c2-3.7,3.4-7.6,4.2-11.9
		c2-8.2,4.8-20.5,8.5-36.9c1.4-5.7,2.9-9,4.5-10c1.5-1,5.7-1.5,12.5-1.5c2,0.3,3.7,0.4,5.1,0.4c-3.1,13-7.1,29.7-11.9,50
		c-6.8,29.4-20.3,48-40.7,56c-15.3,5.6-29,3.7-41.1-5.9C670.1,334.3,665.7,319.6,670,300.6z"/>
	<path class="st7" d="M743.7,300.6l14.4-61.5c17.2-75.2,32.2-128.3,44.9-159.4c4.5-11,10.1-19.8,16.7-26.3
		c6.6-6.5,14.7-10.4,24.2-11.7c9.5-1.3,20,1.6,31.6,8.7c-8.2,6.5-15,16.3-20.3,29.2c-3.4,8.5-7.1,18.8-11,30.9
		c-4,12.2-7.3,22.9-10,32.2c-2.7,9.3-6.1,22.6-10.2,39.8c-4.1,17.2-6.9,29.2-8.5,35.8c-1.6,6.6-4.5,19.7-8.9,39.2
		c-4.4,19.5-6.9,30.1-7.4,31.8L798,296c-3.7,17.8-2.5,26.4,3.4,25.9c4.8-0.6,9.6-6.4,14.4-17.4c2-3.7,3.4-7.6,4.2-11.9
		c2-8.2,4.8-20.5,8.5-36.9c1.4-5.7,2.9-9,4.5-10c1.5-1,5.7-1.5,12.5-1.5c2,0.3,3.7,0.4,5.1,0.4c-3.1,13-7.1,29.7-11.9,50
		c-6.8,29.4-20.3,48-40.7,56c-15.3,5.6-29,3.7-41.1-5.9C743.9,334.3,739.5,319.6,743.7,300.6z"/>
	<path class="st7" d="M965,231.5c-2,4-5.8,8.8-11.4,14.4c-2.8-7.3-10.2-12.2-22-14.6c-11.9-2.4-23.5-2.1-34.8,0.8
		c-11.3,3-17.7,7.4-19.1,13.4c-0.6,3.1,0.4,5.4,2.8,7c2.4,1.6,6,2.5,10.8,2.8c4.8,0.3,9.8,0.4,14.8,0.2c5.1-0.1,10.5,0,16.3,0.4
		c5.8,0.4,10.4,1.5,13.8,3.2c5.9,2.5,10.2,5.4,12.7,8.7c2.5,3.3,3.5,7.8,3,13.8c0,7.4,2.1,10.9,6.4,10.6c5.1-0.6,9.5-4.7,13.1-12.3
		l2.5-6.8c0.6-2.8,1-4.9,1.3-6.1c0.3-1.3,0.4-2,0.4-2.3c0-0.3,0.2-1.1,0.6-2.5c0.4-1.4,0.9-3.5,1.5-6.4c0.3-1.4,0.6-2.5,0.8-3.4
		c0.3-0.8,0.6-1.7,0.8-2.5c0.3-0.8,0.6-1.5,1.1-2.1c0.4-0.6,0.8-1.1,1.1-1.5c0.3-0.4,0.8-0.7,1.7-0.8c0.8-0.1,1.5-0.3,1.9-0.4
		c0.4-0.1,1.3-0.3,2.5-0.4c1.3-0.1,2.3-0.2,3-0.2c0.7,0,2,0.1,4,0.2c2,0.1,3.7,0.2,5.1,0.2c-0.8,3.4-1.6,6.4-2.3,9.1
		c-0.7,2.7-1.2,4.7-1.5,5.9c-0.3,1.3-0.7,3.2-1.3,5.7c-0.6,2.5-1.3,5.8-2.1,9.8c-3.7,14.4-10.2,24.9-19.5,31.4
		c-5.9,4.8-12.7,6.9-20.3,6.4c-7.6-0.6-13.4-4.2-17.4-11c1.7,6.2,3.4,10.3,5.1,12.3c-5.1,6.8-9,11.7-11.7,14.8
		c-2.7,3.1-7.4,7-14.2,11.7c-6.8,4.7-14.7,8.6-23.7,11.7c-19.5,6.8-33.7,5.9-42.6-2.8c-8.9-8.6-11.2-19.5-7-32.6
		c4.2-13.1,12.9-21.8,25.9-26.1c0.8,5.9,3.6,10.2,8.3,12.9c4.7,2.7,9.5,3.7,14.6,3c5.1-0.7,9.8-2.5,14.2-5.5c4.4-3,7.1-6.6,8.3-10.8
		c0.8-4-0.2-6.6-3.2-8.1c-3-1.4-7.4-2-13.1-1.9c-5.8,0.1-12,0.4-18.7,0.6c-6.6,0.3-13.6-0.3-21-1.7c-7.4-1.4-13.4-4-18.2-7.6
		c-7.4-5.9-10.5-13.1-9.5-21.6c1-8.5,4.6-16.9,10.8-25.2c6.2-8.3,13.7-15.5,22.5-21.4c21.5-13.8,44.2-20.3,68.3-19.5
		c21.5,0.8,34.2,7.9,38.2,21.2C970.4,212.9,969.3,221.7,965,231.5z"/>
</g>
</svg>
