<?xml version="1.0" encoding="utf-8"?>
<!-- Generator: Adobe Illustrator 24.0.1, SVG Export Plug-In . SVG Version: 6.00 Build 0)  -->
<svg version="1.1" id="Layer_4" xmlns="http://www.w3.org/2000/svg" xmlns:xlink="http://www.w3.org/1999/xlink" x="0px" y="0px"
	 width="1000px" height="1000px" viewBox="0 0 1000 1000" style="enable-background:new 0 0 1000 1000;" xml:space="preserve">
<style type="text/css">
	.st0{fill:#EB2C35;}
	.st1{fill:#E3E7E4;}
	.st2{fill:#128948;}
	.st3{fill:#F3FDFA;}
	.st4{fill:#E5E5E4;}
	.st5{fill:#F19642;}
	.st6{fill:#3BB54B;}
	.st7{fill:#8DC53F;}
	.st8{fill:#FFFFFF;}
	.st9{fill:#C3272F;}
	.st10{font-family:'AbrilFatface-Regular';}
	.st11{font-size:108.9773px;}
	.st12{fill:#FEFEFE;}
	.st13{fill:#211C1D;}
	.st14{fill:#565F72;}
	.st15{fill:#352C2B;}
	.st16{fill:#F19AAC;}
	.st17{fill:#F9F4CC;}
	.st18{fill:#DB5757;}
	.st19{fill:#AEA87B;}
	.st20{fill:#E893A3;}
	.st21{fill:#28615B;}
	.st22{fill:#727171;}
	.st23{fill:#539B91;}
	.st24{fill:#F1BECB;}
	.st25{fill:#D16266;}
	.st26{fill:#D72F31;}
</style>
<circle class="st0" cx="500" cy="500" r="500"/>
<g>
	<path class="st1" d="M408.3,32.9c-100.4,16.4-195,72.3-266.5,157.4c-34.9,41.6-58.6,88.6-72.3,120.7c-9.8,23-16.1,41.7-19.2,51.9
		L39,361.1c3-10,9.5-29.8,20.1-54.6c14-32.8,38.3-80.9,74.1-123.5c35.3-42,76.4-77.3,122.3-105c48-28.9,98.8-47.8,151-56.3
		c3.1-0.5,5.9,1.6,6.4,4.6S411.4,32.4,408.3,32.9z"/>
</g>
<g>
	<g>
		<path class="st2" d="M711.7,117.8c-1.5,2.7-5,3.6-7.7,2.1c-43.2-24.7-113.2-54.2-200.6-54.2c-129.2,0-227.6,39.3-319.2,127.4
			c-40.5,39-66.2,85.4-80.7,117.4c-9.6,21.4-15.6,39.3-18.8,50c-4.2,0.5-8.3,1-12.1,1.4c2.8-10,9.2-30.5,20.7-56
			c14.9-32.9,41.3-80.6,83.1-120.9c44-42.4,89.2-73.3,138.1-94.4c56.4-24.4,118.2-36.2,188.9-36.2c39.9,0,80,6.1,119.1,18.1
			c30.4,9.3,59.7,22,87.1,37.7C712.3,111.7,713.2,115.1,711.7,117.8z"/>
	</g>
	<g>
		<path class="st2" d="M945.8,419.7c-4.9-1.5-9-2.3-11.8-2.7c-6.8-39.7-31.7-106.2-67.6-163.5c-37.6-60-100.2-107.2-100.9-107.6
			c-2.5-1.9-3-5.4-1.1-7.9s5.4-3,7.9-1.1c2.6,2,64.9,48.8,103.7,110.7C910.2,302.2,939.4,374.9,945.8,419.7z"/>
	</g>
	<g>
		<path class="st2" d="M935.9,605.6c-2.7,9.6-7.2,24.2-14.1,42.1c-11.5,29.4-32,73.5-64.6,116c-25.9,33.7-69.9,82.2-132.8,121.4
			c-64,39.9-133.2,61.4-205.5,63.9c-5.2,0.2-10.3,0.3-15.3,0.3c-78.7,0-145.3-20.4-188.4-38.1c-2.9-1.2-4.2-4.5-3.1-7.3
			c1.2-2.9,4.5-4.2,7.3-3.1c44.8,18.5,115.7,39.8,199,37c177.1-6,289.6-128.5,329.8-180.9c31.8-41.5,51.8-84.4,63-113
			c6.4-16.4,10.7-30.1,13.4-39.5L935.9,605.6z"/>
	</g>
	<g>
		<path class="st2" d="M237.3,852.7c-1.1,1.6-2.9,2.5-4.7,2.5c-1.1,0-2.1-0.3-3.1-0.9c-1.3-0.9-32.6-21.8-69.1-65.2
			c-21.4-25.5-40.2-53.4-55.8-83.1C86.7,672,73,635.6,63.7,597.7c4.2-0.5,8-0.9,11.3-1.2c21.3,85.9,62.6,147.9,94,185.3
			c35.5,42.2,66.4,62.9,66.8,63.1C238.3,846.6,239,850.1,237.3,852.7z"/>
	</g>
</g>
<g>
	<g>
		<path class="st3" d="M502.9,912c-46.2,0-92.6-8.5-140.8-25.7c-60.3-21.5-115.2-57.6-158.6-104.4c-44.2-47.6-74-103.7-86.4-162.3
			c-0.6-3,1.3-6,4.3-6.7c3-0.6,6,1.3,6.7,4.3c24.1,114.1,117.4,215.6,237.8,258.5c118.5,42.2,226.8,31.5,351.2-34.7
			c63.2-33.7,98.6-79.9,117.1-112.7c20.1-35.7,25.4-63.8,25.4-64.1c0.6-3,3.5-5.1,6.5-4.5c3,0.5,5.1,3.5,4.5,6.5
			c-0.2,1.2-5.5,29.9-26.4,67.2c-12.3,21.8-27.4,42.1-45,60.2c-22,22.6-47.8,41.9-76.9,57.4c-63.9,34-123.4,53.4-181.8,59.2
			C528,911.4,515.5,912,502.9,912z"/>
	</g>
	<g>
		<path class="st3" d="M865.2,334.4c-2.1,0-4.2-1.2-5.1-3.3c-19.9-43.2-75.2-128.1-156-172.2c-92-50.3-188.8-67.9-287.5-52.3
			c-57.4,9.1-103.4,30.5-132,46.9c-31,17.8-48.6,33.6-48.8,33.8c-2.3,2.1-5.8,1.9-7.9-0.4c-2.1-2.3-1.9-5.8,0.4-7.9
			c0.7-0.7,18.5-16.7,50.5-35c29.4-16.9,76.9-39,136.1-48.4c101.3-16,200.4,2,294.6,53.5c83.3,45.5,140.3,132.9,160.8,177.4
			c1.3,2.8,0.1,6.2-2.7,7.5C866.8,334.2,866,334.4,865.2,334.4z"/>
	</g>
	<g>
		<path class="st4" d="M701.6,941.5c-5.5,2.5-34.3,13.7-74.7,22.9c-29.6,6.8-71.4,13.9-117.1,13.9c-13,0-26.4-0.6-39.9-1.9
			c-61.7-6-119.1-20.6-170.7-43.4c-57.5-25.4-109.2-61.6-153.5-107.5c-21.4-22.1-41-48.1-58.3-77.3c-13.8-23.3-26.2-48.6-36.8-75.2
			c-12.2-30.5-19.1-55.5-22.5-69c3.5-1,7.2-1.8,10.9-2.6c3.3,13.2,10.2,38,22,67.7c16.3,40.9,45.6,99.9,92.7,148.6
			c82.4,85.4,189.2,135,317.2,147.5c59.3,5.8,116.1-3.2,153.4-11.8c39.1-9,67.6-20,72.6-22.2c2.8-1.3,6.1,0,7.4,2.8
			C705.6,936.9,704.4,940.2,701.6,941.5z"/>
	</g>
</g>
<g>
	<g>
		<path class="st5" d="M981.2,441.9c-4.1-4.3-8.3-7.9-12.6-10.9c-29.9-227.6-223-398-464.1-398c-8.7,0-25.4,0.3-33.8,0.7
			c-3.1,0.2-5.7-2.2-5.9-5.3c-0.2-3.1,2.2-5.7,5.3-5.9c9-0.5,25.9-0.7,34.4-0.7c63.9,0,126,12.1,184.6,35.9
			c57.2,23.2,108.5,56.5,152.6,99C921.1,233.2,969.6,333.1,981.2,441.9z"/>
		<path class="st5" d="M958.1,607.9l11.3,1.1c-11.6,45.9-30.2,89.9-55.2,130.5c-44.3,72-107.2,130.8-181.9,170.2
			c-0.8,0.4-1.7,0.7-2.6,0.7c-2,0-4-1.1-5-3c-1.4-2.7-0.4-6.1,2.3-7.6C843.6,838.4,926.2,731.8,958.1,607.9z"/>
	</g>
	<g>
		<path class="st5" d="M392.6,149.4c-30.3,6.1-107.8,36.4-154,91c-43.5,51.5-57.9,110.7-64.1,136.7c-3.1-2.5-6.5-4.7-10-6.6
			c6.9-28.5,22.4-86.3,65.5-137.3c27.4-32.4,63.4-54.7,88.8-67.7c30.1-15.4,57.3-24.2,71.5-27.1c3-0.6,6,1.4,6.6,4.4
			C397.6,145.8,395.7,148.8,392.6,149.4z"/>
	</g>
	<g>
		<path class="st5" d="M835.5,357.3l-12.6-3c-15.1-48.4-64.5-124-135.5-166.9c-40.4-24.4-84.6-36.6-114.6-42.6
			c-32.7-6.5-56-7.1-56.2-7.2c-3.1-0.1-5.5-2.7-5.5-5.8c0.1-3.1,2.7-5.6,5.8-5.5c1,0,24.4,0.7,57.9,7.3c31,6.1,76.7,18.7,118.5,44
			c46.8,28.3,80.1,67.3,99.7,95C813.6,301.8,829,332.5,835.5,357.3z"/>
	</g>
	<g>
		<path class="st5" d="M587.7,880.7c-29.4,3.8-57.1,5.7-82.6,5.7c-46.5,0-85.9-6.2-116.4-18.5c-39.2-15.8-72.2-33.8-100.9-54.9
			c-33.3-24.5-61.1-53.5-85.2-88.6c-26.2-38.2-39.2-79-45.5-106.4c-3.6-15.7-5.4-28.8-6.4-37.9c4.2,2.5,8.8,5.3,12.2,7.4
			c1.1,7.8,2.7,17.5,5.2,28.3c6,26.4,18.5,65.6,43.7,102.3c43.6,63.6,99.5,106.6,181,139.5c45.5,18.3,112.3,22.5,193.4,12.1
			c3.1-0.4,5.9,1.8,6.3,4.9S590.7,880.3,587.7,880.7z"/>
	</g>
	<g>
		<path class="st5" d="M861.3,602.4c-1.8,8.5-5.3,22.4-11.5,39.5c-9.5,26.5-27.5,66.1-59.4,104.8c-30.3,36.8-65.8,64-108.6,83.2
			c-39.9,17.9-85,28.3-137.9,31.8c-0.1,0-0.3,0-0.4,0c-2.9,0-5.4-2.3-5.6-5.3c-0.2-3.1,2.1-5.8,5.2-6
			c104.9-6.7,182.9-43,238.7-110.8c43.6-53.1,61-108.4,67.2-133.8L861.3,602.4z"/>
	</g>
</g>
<g>
	<path class="st6" d="M680,135.7c0,0-3.6-11.8,10.3-23.3c13.9-11.5,39.9-24,56.7-26.7l2,3.1c0,0,1.1,17.6-19.8,33.8
		c-22,17-45.1,15.4-45.1,15.4L680,135.7z"/>
	<path class="st6" d="M696.2,859.7c0,0-29.7,26.1-28.3,69c23.4-18.1,29.5-29.6,33.1-42.8C704.7,872.6,699.8,863.6,696.2,859.7z"/>
</g>
<g>
	<circle class="st7" cx="428.5" cy="85.9" r="18.3"/>
	<circle class="st7" cx="901.5" cy="686.6" r="12.9"/>
	<circle class="st7" cx="630" cy="863.8" r="11.3"/>
</g>
<g>
	<circle class="st8" cx="201.6" cy="159.2" r="13"/>
	<circle class="st8" cx="554.6" cy="44.8" r="11.3"/>
	<circle class="st8" cx="816.5" cy="239.1" r="15"/>
	<circle class="st8" cx="641.8" cy="909.2" r="7.4"/>
	<circle class="st8" cx="295.6" cy="885" r="16.8"/>
</g>
<g>
	<path class="st7" d="M275.2,104.2c0,0,6.3,21.9,26.1,32.6s35.4,11,35.4,11c-3-21.4-19.8-29.4-35.7-34.9
		C285.1,107.4,275.2,104.2,275.2,104.2z"/>
	<path class="st7" d="M649.7,57.7c-13.5,8.2-21.3,37.9-14.7,58c6.5,20.1,13.1,25,17.5,29.7s8.5,11,8.5,11s16.5-23.4,13.7-51.7
		C672,76.4,653,59.4,649.7,57.7z"/>
	<path class="st7" d="M692.1,836.9c0,13.7,11.8,28.8,26.7,34.1c14.8,5.2,31.3,11.5,31.3,11.5s-6.6-20.6-21.7-31.6
		C713.2,839.9,692.1,836.9,692.1,836.9z"/>
	<path class="st7" d="M249.4,783.3c-9.9,8-9.3,39.6,23.6,54.7c-11-22.5-0.6-57.7-13.5-69.5c-22.8-4.4-61.5-11.5-76.4-35.3
		C171.1,747.3,191.2,793.2,249.4,783.3z"/>
</g>
<g>
	<circle class="st9" cx="326.6" cy="67" r="18.3"/>
	<circle class="st9" cx="282.6" cy="168.2" r="11.3"/>
	<circle class="st9" cx="903.6" cy="267.1" r="14.7"/>
	<circle class="st9" cx="788.8" cy="798.5" r="23.8"/>
	<ellipse class="st9" cx="412.9" cy="920.5" rx="14.3" ry="14.3"/>
	<circle class="st9" cx="138.2" cy="775.9" r="20.3"/>
	<circle class="st9" cx="160.3" cy="667.4" r="13.2"/>
</g>
<text transform="matrix(1 0 0 1 366.1934 790.5898)" class="st10 st11">Dolls</text>
<g>
	<path class="st12" d="M600.7,608.7c5.7-16.2,10.5-32.7,12.4-49.9c2.9-26.7,0.8-52.7-11.4-77c-6.1-12-14.6-22.9-28.8-24
		c-10.1-0.8-12-6.2-14-13.7c-0.9-3.3,0-4.8,2.5-6.5c9.1-6.1,16.9-13.5,23.8-22c0.9-1.1,1.9-2.7,3.1-3c13.1-3.5,17.7-14.3,20.8-25.6
		c5.8-20.8,5.2-42,0.9-63c-7.7-37.2-31.9-60.5-65.8-74.8c-5.6-2.3-5.6-5.1-4.8-10c1-6.4,5.1-3,7.8-3c6,0,8.8-2.3,7.4-6.8
		c-1-3.2-3.7-3.3-6.4-4c-3.8-1-8.8,0.7-11-4.1c-1.8-4-4.5-8.3-4.3-12.2c0.2-2.9,5.8-2.4,8.8-4c1.9-1,3.4-2.3,2.7-4.6
		c-0.9-2.6-3.2-1.9-5-1.6c-1.7,0.3-3.4,0.8-4.9,1.5c-5,2.2-8.7,1.1-13.1-2.7c-19.7-16.9-55.6-18.3-77.5-3.7
		c-3.3,2.2-30.3,10.5-34.6,10.5c-2,0-4.5-0.1-4.7,2.4c-0.3,2.6,1.7,3.7,4.2,4.2c4.1,0.7,8.2,1.5,12.3,2.3c2.1,0.4,4.1,0.8,2.9,3.7
		c-3.9,9-3.7,21.3-18.4,21.2c-3.6,0-7.7,1.9-6.5,7c1.2,4.9,4.8,4.7,8.8,3.1c1-0.4,2.5-1.1,3,0.6c0.4,1.3-0.2,2.4-1.4,3
		c-1.5,0.8-3.1,1.5-4.6,2.3c-44.4,23.6-70.9,79.7-60.5,127.9c6.5,30.2,25.2,47,52.4,46.3c-2.2,3.9-4.2,7.5-6.2,11
		c-10,17-15.2,36.1-24.1,53.6c-13.5,26.5-17.8,54.4-13.5,83.8c1.6,10.6,6.2,20.1,8.7,30.4c-1.6,1.4-1.1,3.2-0.9,4.8
		c1.5,14.7,7.2,27.5,17.7,37.8c26.7,26.1,59.9,37.5,96.2,38.6c35.8,1.1,68.8-10.2,98.4-30.4c11.5-7.9,21.2-17.6,26.3-31
		C601.4,621.1,603.9,615.1,600.7,608.7z"/>
	<path class="st13" d="M361.6,607.2c-2.5-10.2-7.2-19.8-8.7-30.4c-4.4-29.4-0.1-57.3,13.5-83.8c8.9-17.5,14.1-36.6,24.1-53.6
		c2.1-3.5,4-7.1,6.2-11c-27.2,0.7-45.9-16.1-52.4-46.3c-10.4-48.2,16.2-104.3,60.5-127.9c1.5-0.8,3.1-1.5,4.6-2.3
		c1.3-0.6,1.8-1.8,1.4-3c-0.5-1.7-2-1-3-0.6c-3.9,1.6-7.6,1.8-8.8-3.1c-1.2-5.1,2.9-7,6.5-7c14.7,0.1,14.6-12.3,18.4-21.2
		c1.2-2.8-0.9-3.3-2.9-3.7c-4.1-0.8-8.2-1.6-12.3-2.3c-2.5-0.4-4.5-1.6-4.2-4.2c0.3-2.4,2.7-2.3,4.7-2.4c4.3,0,31.2-8.3,34.6-10.5
		c21.8-14.6,57.7-13.2,77.5,3.7c4.4,3.8,8.1,4.8,13.1,2.7c1.6-0.7,3.3-1.2,4.9-1.5c1.9-0.3,4.2-1,5,1.6c0.8,2.3-0.7,3.6-2.7,4.6
		c-3,1.5-8.7,1-8.8,4c-0.2,4,2.4,8.3,4.3,12.2c2.2,4.8,7.2,3.1,11,4.1c2.7,0.7,5.4,0.8,6.4,4c1.4,4.5-1.4,6.9-7.4,6.8
		c-2.7,0-6.8-3.4-7.8,3c-0.8,4.9-0.8,7.7,4.8,10c33.9,14.3,58.1,37.6,65.8,74.8c4.3,20.9,4.9,42.2-0.9,63
		c-3.1,11.2-7.7,22-20.8,25.6c-1.2,0.3-2.2,1.9-3.1,3c-6.9,8.5-14.7,15.9-23.8,22c-2.5,1.7-3.4,3.2-2.5,6.5
		c2.1,7.5,3.9,12.9,14,13.7c14.2,1.1,22.7,12,28.8,24c12.2,24.4,14.4,50.4,11.4,77c-1.9,17.2-6.6,33.7-12.4,49.9
		c-0.8,0.5-1.9,0.8-2.4,1.5c-5.7,7.8-12.8,12.9-23,12.1c-2.6-0.2-4,1.7-5.5,3.3c-12.1,12.6-27.4,19.8-43.4,25.9
		c-18.6,7-39.1,7-57.5,15.1c-2.8,1.2-6.3,1.3-9.4,1.2c-34.2-1.3-61.6-16.4-84.2-41.5C369.9,620.4,366.6,613.2,361.6,607.2z
		 M585.6,605.9L585.6,605.9c0.4-0.4,0.9-1,1.5-1.5c1.1-0.4,1.5-1.3,1.6-2.4c1.1-0.8,1.7-2,1.7-3.4l-0.1,0.1c1.3-0.7,1.5-1.9,1.5-3.1
		l-0.1,0.1c1.3-0.7,1.5-1.8,1.5-3.1l-0.1,0.1c2.5-3.1,2.9-6.9,3.2-10.6l-0.2-0.5c2.3-3.9,3-8.2,3.2-12.6c0.2-1.1,0.4-2.1,0.6-3.2
		c2.6-12.2,4.6-24.4,1.7-36.8c0-3,0-6,0-10.5c-13.3,21.1-16.2,23.5-30.9,26.9c-4-0.8-3.7,1.4-3.1,4.2c1.3,5.9,2.3,11.9,3.4,17.8
		c0.2,2.5,0.4,5,0.6,7.6c-0.4,9.4,0.2,18.8,2.4,28c0.2,1,0.4,2.1,0.6,3.1c0.6,4.7,2.8,5.9,6.8,3.1l-0.1,0.1c1.3,0,2.4-0.4,3-1.7
		l-0.1,0C584.6,606.9,585.1,606.4,585.6,605.9z M529.3,453.4c-9.1,1.5-18.3,3.1-28.9,4.9c5,4.3,8.7,7.5,12.3,10.7
		c1.7,1.5,3.2,2.1,4.9,0C521.8,464,527.3,460.1,529.3,453.4c0.3-0.1,0.5-0.3,0.7-0.5c-0.1,0-0.3,0-0.4,0
		C529.4,453,529.4,453.3,529.3,453.4z M515.8,515.6c-4.6-10.5-16.8-16.2-27.8-13.3c-2.7,0.7-2.2,2-1.7,3.7
		c2.4,8.2,4.9,16.4,7.3,24.6c-0.6,4.7,1.3,9.2,1.5,13.8c0.2,4.4,2.7,4.4,6,3.9C514.5,546.3,522.8,528.2,515.8,515.6z M584.6,494.3
		c-0.7-0.7-1.4-1.3-2.1-2c-9.5-9.9-27-7.6-30.7,4.4c-2.5,7.9-2.3,16,2.4,23.5c3.1,9,9.1,13.9,16.4,12.8c9.4-1.4,14.4-8.1,17.4-16.2
		C591,508.9,591.7,500.9,584.6,494.3z M452.5,463.6c3.9,3.3,7.6,7.1,11.9,9.9c11.8,7.9,22.2,18.8,38.5,17.7c3.6-0.2,7.7,1.9,11,3.9
		c4.4,2.7,8,2.1,13-0.4c-14.9-9.6-26.5-21.8-40.2-31.4c-2.2-7.3-8.6-4.9-13.6-5.8c-13.1-2.5-26.3-4.8-39.1-9.6
		C439.2,454.5,444.8,460.3,452.5,463.6z M510,204.8l0.1,0.1c-12-9.1-25.9-10.1-40-8.7c-17.4,1.7-33.2,15.6-37.8,32
		c-3.9,13.7,0.4,25.3,11.1,30c0,0,0-0.1,0-0.1c0.5,0.5,1,1,1.4,1.4c6.4,1.5,12.7,3.4,19.3,3.1c2.5-0.1,5.2,0.1,5.6,3.3
		c0.4,3.3-2.4,3.7-4.7,4.5c-6.2,2.1-12.6,0.6-18.8,1c-5.2-4.1-12.7-4.4-17.2-9.5c-3.3-3.7-6.1-3.2-10.2-1.3
		c-42.1,19.4-61.4,54-65.4,98.6c-0.4,4.7-1.5,9.9,2.6,13.9c-0.9,13.4,5.8,23.8,13.5,33.7c3.4,4.3,7.7,7.8,13.1,9.2
		c3.1,0.8,6.3,1,8.9-1.8c2.1-2.3,1.1-4.5,0.3-6.8c-3-8.7-3.3-17.7-3.2-26.9c0.2-28.3,20.9-46.2,48.6-40.6c8.8,1.8,13.3-1.8,18.1-7.6
		c2.7-3.4,2.8-8.3,6.7-11.4c1.3,4.2,0.3,7.6-0.4,11.2c-2,9.6-0.5,11.8,8.9,14.1c2.6,0.7,5.2,1.6,7.8,1.9c10.8,1.4,21.6,5,32.6,1.7
		c17.7-5.2,35-11.3,51.9-18.8c14.2-6.2,20.7-18.1,13.6-34.8c-5-11.9-10.6-23.1-22.9-29.5c-9.8-5.1-19-11.7-30.8-5.8
		c-1.7,0.9-4.7,0.6-5.9-1.8c-1.3-2.7,1.4-3.9,2.9-5.4c9-8.8,8.2-19.9,5.2-30.3c-2-6.9-5.2-14.5-13.5-17.2
		C510.9,205.8,510.5,205.3,510,204.8z M554.2,548c0.2-3.8-0.7-7.4-3.2-10.2c-7.1-7.7-10.8-16.7-11.9-27.1c-0.3-3-0.3-6.9-5.5-4.8
		c-3.3,1.3-7.2,1-5.1,7c4.7,13.3,1.6,25.5-6.8,36.6c-5.5,5.4-11.3,10.4-19.6,10.6c-3.4,0.1-4.1,2-3.9,4.9c0.5,6.6,1.1,13.2,1.6,19.8
		c0.3,3.7,2.9,3.4,5.4,3.1c17.4-2.5,34.1-7.3,49.5-16c2.2-1.2,4.8-2.2,4-5.3C557,560.3,557.4,553.7,554.2,548z M381.5,490.4
		c-17.8,29-23.6,59.9-14.8,93.1c3.3,15.1,10.5,28.1,21.8,38.6c19.1,21,42.7,32.9,71.3,33.6c9.7,0.2,18.5-2.7,21.9-13.7
		c10.2-32.8,6.9-65.5,0.2-98.3c0.1-7.2-1.4-14-3.5-20.8c-0.4-2.2-0.8-4.4-1.2-6.5c-1.7-8.7-5.7-14.7-15.4-16.3
		c-7.3-1.1-14.4-3.4-21.5-5.3c-9.7-2.6-20-2.5-29.6-5.8c3-6.9,9.4-7.3,15.5-7.6c11.4-0.7,22.1,3,33.7,4.9
		c-19.1-15.1-39.2-28.8-54.1-49.2c-4.4,7.9-8.5,14.6-11.9,21.7C388.9,469,384.7,479.6,381.5,490.4z M497.9,445.3
		c31.2-0.6,57.1-12.5,77.4-36.4c1.2-1.4,1.9-2.9,1.1-4.7c-1.5-3.5-0.2-6.8,0.6-10.1c2.1-8.9,3.5-17.8,3.1-27
		c-0.5-11.6-5.4-15.8-16.6-13.4c-12.9,2.8-25.7,6.3-38.5,9.4c-23.9,2.1-47.1-1.8-70.2-7.8c-9.8-2.5-19.8-4.1-30-3
		c-14.2,1.4-19,6.2-22.8,19.9c-4.2,14.9,2.4,28.7,3.2,43c0.1,0.9,1.5,1.9,2.4,2.6C434.3,437.9,464,448.5,497.9,445.3z M563.5,612.2
		c-2.4-8.2-3-17-3.6-25.9c-0.3-4.3-3.2-1.7-4.8-0.9c-15.9,7.8-32.7,12.3-50.1,14.3c-3.9,0.4-4.9,2.2-5,5.7c-0.2,12.6-2,25-5.7,37.1
		c-0.9,2.8-1.1,4.8,3.1,4.1c23.2-4,44.6-12,62.5-27.8C561.7,617,563.9,615.4,563.5,612.2z M547.7,449.6
		c-6.6,9.3-12.5,18.4-20.1,26.2c-1,1.1-2.1,2.5-0.8,3.9c1.8,2,3.9,4.1,6.6,4.4c1.8,0.2,1.6-2.1,2-3.4c1.9-6,4.5-11.9,9.7-15.4
		C551.5,461,551.5,456.4,547.7,449.6z M548.9,479.9c11.1-6.5,21.3-6.7,32.7-3.5C572.5,464.7,558.1,466.1,548.9,479.9z"/>
	<path class="st14" d="M361.6,607.2c5,6,8.3,13.2,13.6,19.1c22.6,25.1,50,40.2,84.2,41.5c3.1,0.1,6.6,0,9.4-1.2
		c18.4-8.2,38.9-8.1,57.5-15.1c16-6,31.3-13.3,43.4-25.9c1.5-1.6,2.9-3.5,5.5-3.3c10.2,0.8,17.3-4.2,23-12.1c0.5-0.7,1.6-1,2.4-1.5
		c3.2,6.4,0.7,12.4-1.4,18.2c-5,13.4-14.7,23.2-26.3,31c-29.6,20.3-62.6,31.5-98.4,30.4c-36.3-1.1-69.5-12.5-96.2-38.6
		c-10.6-10.3-16.2-23.1-17.7-37.8C360.5,610.4,360,608.6,361.6,607.2z"/>
	<path class="st15" d="M446.2,271.4c6.3-0.4,12.6,1.1,18.8-1c2.3-0.8,5.1-1.2,4.7-4.5c-0.4-3.2-3.1-3.4-5.6-3.3
		c-6.7,0.3-13-1.6-19.3-3.1c-0.5-0.5-1-1-1.4-1.4c0,0,0,0.1,0,0.1c0.4-2.3-0.4-4.3-0.9-6.5c-2-9.4-0.1-18.1,5.7-25.7
		c7.8-10.3,18-16.8,30.6-20.2c10.5-2.8,20.8-2.5,31.2-0.9c0,0-0.1-0.1-0.1-0.1c0.5,0.5,0.9,1,1.4,1.5c8.3,2.7,11.5,10.3,13.5,17.2
		c3,10.4,3.9,21.4-5.2,30.3c-1.5,1.4-4.1,2.7-2.9,5.4c1.1,2.4,4.1,2.7,5.9,1.8c11.9-5.9,21.1,0.7,30.8,5.8
		c12.3,6.4,17.9,17.7,22.9,29.5c7.1,16.8,0.6,28.6-13.6,34.8c-16.9,7.4-34.2,13.5-51.9,18.8c-11.1,3.3-21.8-0.3-32.6-1.7
		c-2.7-0.3-5.2-1.3-7.8-1.9c-9.4-2.4-10.9-4.5-8.9-14.1c0.8-3.6,1.7-7,0.4-11.2c-3.9,3.1-4,8-6.7,11.4c-4.7,5.9-9.2,9.4-18.1,7.6
		c-27.6-5.6-48.3,12.3-48.6,40.6c-0.1,9.1,0.2,18.2,3.2,26.9c0.8,2.4,1.9,4.6-0.3,6.8c-2.6,2.8-5.9,2.6-8.9,1.8
		c-5.4-1.4-9.7-4.9-13.1-9.2c-7.7-9.9-14.4-20.3-13.5-33.7c0.2-4.6-0.2-9.4,0.7-13.9c5.2-26.8,15.7-51.3,34.5-71.2
		c12.2-12.9,26.4-23,46.2-17.1C440.2,271.7,443.3,271.3,446.2,271.4z"/>
	<path class="st16" d="M478.5,522.9c2.2,6.8,3.7,13.6,3.5,20.8c-2.9,3.3-3.2,7.5-4.4,11.5c-3.3,11.1-6.9,22-12.4,32.2
		c-13.2,24.3-31.9,39.5-61.4,36.4c-5.1-0.5-10.2-1-15.3-1.5c-11.4-10.6-18.5-23.5-21.8-38.6c0.3-0.9,1.1-1.8,1-2.6
		c-3.8-22.5-0.2-44,8.4-64.8c4.5-10.9,11.2-19.5,24.8-19.8c19.5-0.4,38.7,2.1,57.7,6.2c9.6,2.1,16.1,7,17.5,17.2
		C476.2,521.4,476.8,522.6,478.5,522.9z"/>
	<path class="st17" d="M497.9,445.3c-33.9,3.1-63.6-7.5-90.4-27.5c-1-0.7-2.4-1.7-2.4-2.6c-0.8-14.3-7.4-28.1-3.2-43
		c3.8-13.7,8.6-18.4,22.8-19.9c10.2-1,20.2,0.5,30,3c23,6,46.3,9.8,70.2,7.8c2.6,1.1,5.3,2,7.9,3.2c6.5,3,6.9,4.9,2.5,10.5
		c-3.2-1-6.3-1.6-4,3.5c1.1,2.4,2.5,4.5,3.8,6.8c1.1,5.6,4.7,9.9,7.8,14.5c-0.1,0.4-0.3,0.9-0.4,1.4c-5.4,1.6-8,4.7-5.5,10.5
		c-6.6,3.9-14.3,3.1-21.3,4.9c-1.4-0.3-2.8-0.6-4.2-1c-0.9-0.9-1.7-0.9-2.5,0.1c-9.1,0.3-17.2,4.4-26.2,7.2
		c6.5,7.7,15.6,7.4,24.1,8.5C508.8,441,500.3,440.9,497.9,445.3z M458.4,392.7c6.9,0.2,14.7-7.5,14.4-14.2c-0.1-3.1-1.6-3.1-3.8-1.8
		c-12.4,7.2-12.4,7.2-24-1.8c-1.2-1-2.4-2-3.8-0.9c-1.2,1-0.9,2.7-0.6,4.2C441.8,385,451,392.5,458.4,392.7z M460.1,417.9
		c4.1-0.3,9.1-0.1,9.8-5.5c0.7-4.9-3.8-6.3-7.5-7.7c-3.2-1.2-6.6-2.2-10-1.3c-3.1,0.8-6.5,1.9-7.2,5.5c-0.7,3.9,2.7,5.4,5.6,6.7
		C453.8,416.9,456.8,418.1,460.1,417.9z"/>
	<path class="st18" d="M388.6,622.2c5.1,0.5,10.2,1,15.3,1.5c29.5,3.1,48.2-12.1,61.4-36.4c5.5-10.2,9.2-21.1,12.4-32.2
		c1.2-3.9,1.5-8.2,4.4-11.5c6.7,32.8,9.9,65.6-0.2,98.3c-3.4,11.1-12.2,13.9-21.9,13.7C431.3,655.1,407.7,643.2,388.6,622.2z"/>
	<path class="st19" d="M542.8,401.6c-3-4.6-6.7-8.8-7.8-14.5c11.9,4.5,21.2,0.7,23.7-9.7c0.5-2.1,1.3-4.9-0.7-6.2
		c-2.8-1.9-3.5,1.5-4.7,3c-5.8,6.8-11.7,7.6-18,2.5c4.5-5.6,4-7.6-2.5-10.5c-2.6-1.2-5.2-2.1-7.9-3.2c12.8-3.2,25.6-6.7,38.5-9.4
		c11.2-2.4,16.1,1.8,16.6,13.4c0.4,9.2-1,18.1-3.1,27c-0.8,3.3-2.1,6.6-0.6,10.1c0.8,1.8,0.1,3.3-1.1,4.7
		c-20.2,23.9-46.1,35.8-77.4,36.4c2.4-4.4,11-4.4,8.9-12.1c3.2-1.6,6.6-3,9.5-5c2.3-1.6,5.3-3.6,5.1-6.6c-0.2-3-4.5-0.8-5.8-3.2
		c7.1-1.8,14.7-1,21.3-4.9c0.6-0.1,1.2-0.1,1.7-0.2c5.8,0.3,11.8,1.1,16.7-3.3c1.6-1.5,3.7-2.7,3.2-5.3c-0.5-2.5-2.9-3.2-4.9-3.9
		C549.9,399.4,546.3,400.9,542.8,401.6z"/>
	<path class="st18" d="M563.5,612.2c0.3,3.3-1.8,4.8-3.6,6.4c-17.9,15.8-39.3,23.8-62.5,27.8c-4.2,0.7-4-1.3-3.1-4.1
		c3.8-12.1,5.5-24.5,5.7-37.1c0.1-3.5,1.1-5.3,5-5.7c17.5-1.9,34.3-6.5,50.1-14.3c1.6-0.8,4.5-3.3,4.8,0.9
		C560.5,595.1,561.1,603.9,563.5,612.2z"/>
	<path class="st20" d="M381.5,490.4c3.2-10.9,7.4-21.4,12.4-31.6c3.4-7.1,7.6-13.8,11.9-21.7c14.9,20.4,35.1,34.1,54.1,49.2
		c-11.5-1.9-22.3-5.6-33.7-4.9c-6.1,0.3-12.5,0.7-15.5,7.6c-1.8,0.8-3.6,1.6-5.6,1.1C397.2,487.9,389.4,488.9,381.5,490.4z"/>
	<path class="st21" d="M554.2,548c3.2,5.8,2.8,12.4,4.4,18.5c0.8,3.2-1.8,4.1-4,5.3c-15.4,8.7-32.1,13.5-49.5,16
		c-2.5,0.3-5.1,0.7-5.4-3.1c-0.5-6.6-1-13.2-1.6-19.8c-0.2-2.8,0.5-4.8,3.9-4.9c8.3-0.2,14.1-5.2,19.6-10.6c0.1,5.8,4.1,7,8.8,7.7
		C540.1,558.5,547,552.7,554.2,548z"/>
	<path class="st22" d="M510.1,204.9c-10.5-1.6-20.8-1.9-31.2,0.9c-12.6,3.4-22.8,9.9-30.6,20.2c-5.8,7.6-7.7,16.3-5.7,25.7
		c0.5,2.2,1.3,4.2,0.9,6.5c-10.7-4.7-15-16.2-11.1-30c4.6-16.4,20.4-30.3,37.8-32C484.2,194.9,498.1,195.9,510.1,204.9z"/>
	<path class="st23" d="M486.7,463.4c13.7,9.6,25.2,21.8,40.2,31.4c-5,2.5-8.7,3.1-13,0.4c-3.2-2-7.4-4.2-11-3.9
		c-16.2,1.1-26.6-9.8-38.5-17.7c-4.3-2.8-7.9-6.6-11.9-9.9c-0.3-3.1,0.8-4.8,4.1-3.9C466.5,462.1,476.7,462,486.7,463.4z"/>
	<path class="st24" d="M381.5,490.4c7.9-1.5,15.8-2.6,23.7-0.3c2,0.6,3.8-0.2,5.6-1.1c9.6,3.3,19.9,3.1,29.6,5.8
		c7.1,1.9,14.2,4.2,21.5,5.3c9.7,1.5,13.7,7.6,15.4,16.3c0.4,2.2,0.8,4.4,1.2,6.5c-1.7-0.3-2.3-1.5-2.5-3.1
		c-1.4-10.2-7.9-15.1-17.5-17.2c-19-4.2-38.2-6.7-57.7-6.2c-13.6,0.3-20.3,9-24.8,19.8c-8.6,20.8-12.2,42.4-8.4,64.8
		c0.1,0.8-0.6,1.7-1,2.6C357.9,550.3,363.7,519.4,381.5,490.4z"/>
	<path class="st22" d="M446.2,271.4c-2.9-0.1-6.1,0.3-8.8-0.5c-19.7-5.9-34,4.2-46.2,17.1c-18.8,20-29.3,44.5-34.5,71.2
		c-0.9,4.5-0.5,9.3-0.7,13.9c-4.1-4-3-9.3-2.6-14c4-44.6,23.2-79.1,65.4-98.6c4.1-1.9,6.9-2.5,10.2,1.3
		C433.5,267,441,267.3,446.2,271.4z"/>
	<path class="st23" d="M554.2,548c-7.3,4.7-14.1,10.5-23.8,9.2c-4.7-0.7-8.7-1.9-8.8-7.7c8.4-11.1,11.5-23.3,6.8-36.6
		c-2.1-6,1.8-5.7,5.1-7c5.2-2.1,5.2,1.8,5.5,4.8c1.1,10.3,4.8,19.4,11.9,27.1C553.6,540.5,554.5,544.1,554.2,548z"/>
	<path class="st17" d="M554.3,520.2c-4.6-7.4-4.8-15.5-2.4-23.5c3.7-11.9,21.1-14.3,30.7-4.4c0.7,0.7,1.4,1.4,2.1,2
		C578.5,517.2,575.6,519.7,554.3,520.2z"/>
	<path class="st16" d="M570.7,545.3c14.7-3.4,17.6-5.8,30.9-26.9c0,4.5,0,7.5,0,10.5c-1.9,4.3-2,8.9-2.7,13.4c0,0.5-0.1,1-0.1,1.5
		c-0.4,1.5-0.8,3-1.2,4.4c-1.7,8.1-3.2,16.3-6.4,24c-1.1,2.7-2.2,5.8-5.9,5.6c-3.4-0.1-4.2-3-5.2-5.5c-2.7-6.6-5.2-13.2-7.7-19.8
		C571.7,550.1,571.2,547.7,570.7,545.3z"/>
	<path class="st18" d="M572.2,552.5c2.6,6.6,5.1,13.2,7.7,19.8c1,2.5,1.8,5.4,5.2,5.5c3.8,0.1,4.8-2.9,5.9-5.6
		c3.2-7.7,4.8-15.9,6.4-24c4.7,1.4,2.8,5.1,2.3,7.8c-0.6,3.3-1.8,6.5,0,9.7c-0.2,1.1-0.4,2.1-0.6,3.2c-2.9,3.7-3.5,8-3.2,12.6
		c0,0,0.2,0.5,0.1,0.5c-2.9,3-3.5,6.7-3.2,10.6c0,0,0.1-0.1,0.1-0.1c-1.5,0.6-1.7,1.8-1.5,3.1c0,0,0.1-0.1,0.1-0.1
		c-1.6,0.5-1.7,1.7-1.5,3.1c0,0,0.1-0.1,0.1-0.1c-1.7,0.6-1.8,1.9-1.7,3.4c-0.1,1.1-0.5,2-1.6,2.4c-0.5,0.5-1,1.1-1.5,1.6
		c0,0,0.1-0.1,0.1-0.1c-0.5,0.5-1,1-1.6,1.5c0,0,0.1,0,0.1,0c-1.3,0-2.5,0.2-3,1.7c0,0,0.1-0.1,0.1-0.1c-3,0.6-4.5-2.2-6.8-3.1
		c-0.2-1-0.4-2.1-0.6-3.1c0.9-9.3,0.4-18.5-1.7-27.7c0-0.1-0.4-0.2-0.7-0.3c-0.2-2.5-0.4-5-0.6-7.6c2-2.4,1.2-4.9,0.5-7.4
		C570.7,557.3,569.9,554.7,572.2,552.5z"/>
	<path class="st17" d="M493.6,530.5c-2.4-8.2-4.9-16.4-7.3-24.6c-0.5-1.7-1-3,1.7-3.7c11-2.9,23.2,2.8,27.8,13.3
		c-3,1.8-2.2,5.1-3.1,7.7C510.2,530.5,506.3,532,493.6,530.5z"/>
	<path class="st19" d="M554.3,520.2c21.3-0.5,24.2-3,30.3-25.8c7,6.5,6.4,14.5,3.5,22.4c-3,8.1-8.1,14.8-17.4,16.2
		C563.4,534,557.4,529.2,554.3,520.2z"/>
	<path class="st19" d="M493.6,530.5c12.6,1.5,16.6,0,19.1-7.2c0.9-2.6,0.1-5.9,3.1-7.7c6.9,12.7-1.3,30.8-14.8,32.7
		c-3.3,0.5-5.8,0.5-6-3.9C494.9,539.7,493,535.2,493.6,530.5z"/>
	<path class="st21" d="M486.7,463.4c-10-1.4-20.2-1.3-30-3.7c-3.3-0.8-4.4,0.9-4.1,3.9c-7.7-3.3-13.3-9.1-18.4-15.6
		c12.8,4.8,25.9,7.1,39.1,9.6C478.1,458.5,484.5,456,486.7,463.4z"/>
	<path class="st25" d="M547.7,449.6c3.9,6.7,3.9,11.3-2.6,15.6c-5.2,3.4-7.8,9.4-9.7,15.4c-0.4,1.3-0.2,3.6-2,3.4
		c-2.7-0.3-4.8-2.4-6.6-4.4c-1.3-1.4-0.2-2.8,0.8-3.9C535.2,468.1,541.1,459,547.7,449.6z"/>
	<path class="st23" d="M529.3,453.5c-2.1,6.6-7.6,10.5-11.7,15.5c-1.7,2.1-3.2,1.5-4.9,0c-3.6-3.2-7.3-6.4-12.3-10.7
		C511,456.5,520.1,455,529.3,453.5C529.3,453.4,529.3,453.5,529.3,453.5z"/>
	<path class="st24" d="M548.9,479.9c9.2-13.8,23.6-15.2,32.7-3.5C570.2,473.3,560,473.4,548.9,479.9z"/>
	<path class="st25" d="M599.9,565.7c-1.9-3.3-0.7-6.4,0-9.7c0.5-2.7,2.4-6.4-2.3-7.8c0.4-1.5,0.8-3,1.2-4.4c0.2-0.1,0.6-0.3,0.6-0.4
		c-0.1-0.4-0.3-0.7-0.5-1.1c0.7-4.5,0.8-9.1,2.7-13.4C604.5,541.3,602.5,553.5,599.9,565.7z"/>
	<path class="st25" d="M571.5,574.8c0.2,0.1,0.6,0.2,0.7,0.3c2.1,9.1,2.6,18.4,1.7,27.7C571.8,593.6,571.2,584.2,571.5,574.8z"/>
	<path class="st25" d="M572.2,552.5c-2.4,2.2-1.6,4.8-0.8,7.3c0.8,2.5,1.6,5.1-0.5,7.4c-1.1-5.9-2.2-11.9-3.4-17.8
		c-0.6-2.8-0.8-5,3.1-4.2C571.2,547.7,571.7,550.1,572.2,552.5z"/>
	<path class="st25" d="M596.1,581.5c-0.3-4.5,0.3-8.9,3.2-12.6C599.1,573.3,598.4,577.6,596.1,581.5z"/>
	<path class="st25" d="M593.1,592.7c-0.3-4,0.3-7.6,3.2-10.6C595.9,585.8,595.5,589.5,593.1,592.7z"/>
	<path class="st25" d="M574.4,605.9c2.3,0.9,3.8,3.7,6.8,3.1C577.2,611.8,575.1,610.5,574.4,605.9z"/>
	<path class="st25" d="M588.7,602c-0.1-1.5-0.1-2.8,1.7-3.4C590.4,600,589.8,601.1,588.7,602z"/>
	<path class="st25" d="M590.3,598.7c-0.3-1.4-0.1-2.6,1.5-3.1C591.7,596.8,591.6,598,590.3,598.7z"/>
	<path class="st25" d="M591.6,595.7c-0.2-1.4,0-2.5,1.5-3.1C593.1,593.8,592.9,595,591.6,595.7z"/>
	<path class="st25" d="M581.2,609c0.5-1.5,1.7-1.7,3-1.7C583.5,608.6,582.5,609,581.2,609z"/>
	<path class="st22" d="M443.4,258.2c0.5,0.5,1,1,1.4,1.4C444.4,259.1,443.9,258.6,443.4,258.2z"/>
	<path class="st25" d="M585.6,606c0.5-0.5,1-1.1,1.5-1.6C586.6,604.9,586.1,605.4,585.6,606z"/>
	<path class="st25" d="M584.1,607.4c0.5-0.5,1-1,1.6-1.5C585.1,606.4,584.6,606.9,584.1,607.4z"/>
	<path class="st23" d="M529.3,453.4c0.1-0.2,0.1-0.4,0.2-0.5c0.1-0.1,0.3,0,0.4,0C529.7,453.1,529.5,453.3,529.3,453.4
		C529.3,453.5,529.3,453.4,529.3,453.4z"/>
	<path class="st22" d="M511.4,206.3c-0.5-0.5-0.9-1-1.4-1.5C510.5,205.3,510.9,205.8,511.4,206.3z"/>
	<path class="st26" d="M515.6,418.4c1.3,2.4,5.6,0.1,5.8,3.2c0.2,3.1-2.7,5.1-5.1,6.6c-3,2-6.3,3.4-9.5,5
		c-8.5-1.1-17.6-0.8-24.1-8.5c8.9-2.8,17-6.9,26.2-7.2c0.8,0,1.7-0.1,2.5-0.1C512.8,417.8,514.2,418.1,515.6,418.4z"/>
	<path class="st15" d="M458.4,392.7c-7.4-0.2-16.5-7.7-17.8-14.5c-0.3-1.5-0.6-3.1,0.6-4.2c1.4-1.2,2.6-0.1,3.8,0.9
		c11.6,9,11.6,9,24,1.8c2.3-1.3,3.7-1.3,3.8,1.8C473.1,385.2,465.3,392.9,458.4,392.7z"/>
	<path class="st16" d="M460.1,417.9c-3.3,0.1-6.3-1-9.2-2.2c-2.9-1.3-6.3-2.8-5.6-6.7c0.6-3.6,4.1-4.7,7.2-5.5
		c3.4-0.9,6.8,0.1,10,1.3c3.7,1.4,8.1,2.8,7.5,7.7C469.2,417.8,464.2,417.6,460.1,417.9z"/>
	<path class="st15" d="M535.2,376.9c6.4,5.1,12.2,4.3,18-2.5c1.3-1.5,1.9-4.9,4.7-3c2,1.3,1.2,4.1,0.7,6.2
		c-2.5,10.4-11.8,14.1-23.7,9.7c-1.3-2.3-2.8-4.4-3.8-6.8C528.9,375.2,532,375.9,535.2,376.9z"/>
	<path class="st25" d="M542.8,401.6c3.6-0.7,7.1-2.3,10.8-0.9c2,0.8,4.4,1.4,4.9,3.9c0.6,2.6-1.5,3.9-3.2,5.3
		c-4.9,4.5-10.8,3.6-16.7,3.3c1.9-3.2,5.6-5.8,3.8-10.3C542.5,402.5,542.6,402.1,542.8,401.6z"/>
	<path class="st16" d="M542.4,403c1.7,4.6-1.9,7.1-3.8,10.3c-0.6,0.1-1.1,0.1-1.7,0.2C534.4,407.7,537,404.6,542.4,403z"/>
	<path class="st19" d="M511.4,417.4c-0.8,0-1.7,0.1-2.5,0.1C509.6,416.5,510.5,416.6,511.4,417.4z"/>
	<path class="st18" d="M598.9,542.2c0.2,0.4,0.4,0.7,0.5,1.1c0,0.1-0.4,0.3-0.6,0.4C598.8,543.2,598.9,542.7,598.9,542.2z"/>
</g>
</svg>
